<svg width="33" height="48" viewBox="0 0 33 48" fill="none" xmlns="http://www.w3.org/2000/svg">
<g clip-path="url(#clip0_26_252)">
<path d="M0.133179 36V9.6C0.133179 4.29806 4.24965 0 9.32756 0C10.597 0 11.6261 1.07452 11.6261 2.4V36V38.4C11.6261 43.7018 7.50967 48 2.43178 48C1.16229 48 0.133179 46.9255 0.133179 45.6V36Z" fill="url(#paint0_linear_26_252)"/>
<path fill-rule="evenodd" clip-rule="evenodd" d="M0.133179 24H0.158648C0.141769 23.7623 0.133179 23.5222 0.133179 23.28C0.133179 17.9781 4.24965 13.68 9.32756 13.68C11.1184 13.68 12.7896 14.2146 14.2029 15.1392L22.4628 20.1185C22.6426 20.0751 22.8053 19.957 22.9048 19.777L27.983 10.5932C28.1735 10.2488 28.0605 9.80849 27.7306 9.60967L14.3134 1.52146C14.2884 1.50643 14.263 1.49322 14.2372 1.48178C12.8167 0.543271 11.1329 0 9.32756 0C4.24965 0 0.133179 4.29806 0.133179 9.6V18V23.28V24Z" fill="url(#paint1_linear_26_252)"/>
<path fill-rule="evenodd" clip-rule="evenodd" d="M14.398 20.5079L25.7297 13.6781C25.7734 13.6533 25.8166 13.6273 25.8589 13.6002L25.8649 13.5965C26.6862 13.0685 27.2337 12.1209 27.2337 11.04C27.2337 9.98131 26.7085 9.05068 25.9152 8.51673L25.9159 8.51546L27.5114 9.47728C30.4575 11.0769 32.4699 14.2931 32.4699 18C32.4699 21.4985 30.6775 24.5599 27.9991 26.2378L27.9994 26.2385L27.9663 26.2584C27.8996 26.2997 27.8325 26.3402 27.7649 26.3798L17.8038 32.3844L12.6108 22.9931C12.2935 22.4192 12.4818 21.6853 13.0315 21.3539L14.403 20.5271C14.4013 20.5208 14.3997 20.5144 14.398 20.5079Z" fill="url(#paint2_linear_26_252)"/>
<path fill-rule="evenodd" clip-rule="evenodd" d="M26.0934 32.4415L14.8741 25.6469C14.7532 25.5852 14.6371 25.5149 14.5265 25.4364L14.5215 25.4335L14.5217 25.433C13.7592 24.8911 13.2582 23.9751 13.2582 22.9362C13.2582 21.8726 13.7834 20.9377 14.5766 20.4013L14.5759 20.4L12.8885 21.422C9.99244 23.0513 8.02197 26.2603 8.02197 29.9285C8.02197 33.4279 9.8154 36.5095 12.495 38.2003L12.4924 38.2049L28.1366 47.6794C29.2348 48.3444 30.646 47.9369 31.2785 46.7878C33.8086 42.1908 32.3317 36.2482 27.9394 33.588L26.0869 32.4662C26.089 32.4578 26.0913 32.4497 26.0934 32.4415Z" fill="url(#paint3_linear_26_252)"/>
</g>
<defs>
<linearGradient id="paint0_linear_26_252" x1="5.87967" y1="0" x2="5.87967" y2="48" gradientUnits="userSpaceOnUse">
<stop stop-color="#231C5E"/>
<stop offset="1" stop-color="#47E9FF"/>
</linearGradient>
<linearGradient id="paint1_linear_26_252" x1="0.133179" y1="0" x2="34.2991" y2="18.6261" gradientUnits="userSpaceOnUse">
<stop stop-color="#47E9FF"/>
<stop offset="1" stop-color="#231C5E"/>
</linearGradient>
<linearGradient id="paint2_linear_26_252" x1="32.5421" y1="8.39999" x2="2.30324" y2="24.3709" gradientUnits="userSpaceOnUse">
<stop stop-color="#47E9FF"/>
<stop offset="1" stop-color="#231C5E"/>
</linearGradient>
<linearGradient id="paint3_linear_26_252" x1="7.94844" y1="20.4" x2="50.329" y2="42.0404" gradientUnits="userSpaceOnUse">
<stop stop-color="#47E9FF"/>
<stop offset="1" stop-color="#231C5E"/>
</linearGradient>
<clipPath id="clip0_26_252">
<rect width="32.64" height="48" fill="white"/>
</clipPath>
</defs>
</svg>
